<svg width="150" height="209" viewBox="0 0 150 209" fill="none" xmlns="http://www.w3.org/2000/svg">
    <path
        d="M66.0005 191.55C64.7005 184.55 77.3505 185.05 81.5205 187.07C82.6544 187.508 83.5872 188.348 84.1405 189.43C84.4948 190.505 84.4122 191.676 83.9105 192.69C83.4 193.862 82.648 194.913 81.7038 195.774C80.7595 196.636 79.6441 197.289 78.4305 197.69C75.9787 198.462 73.3312 198.327 70.9705 197.31C69.0167 196.569 67.4231 195.105 66.5205 193.22C66.2802 192.686 66.1056 192.126 66.0005 191.55Z"
        stroke="#784796" stroke-miterlimit="10" />
    <path
        d="M32.1005 19.82C32.1005 19.82 43.8805 73.55 50.8205 74.04C50.8205 74.04 44.6805 80.33 41.4605 80.17C41.4605 80.17 39.0405 85.98 33.3905 85.98L21.7705 94.37L17.7705 103.08C17.7705 103.08 20.1605 25.31 32.1005 19.82Z"
        stroke="#784796" stroke-miterlimit="10" />
    <path
        d="M118.261 19.82C118.261 19.82 105.031 73.07 99.7106 74.82C99.7106 74.82 100.511 77.72 108.981 80.3C108.981 80.3 111.481 84.66 115.841 84.66L129.231 94.98L131.651 101.6C131.651 101.6 130.201 33.86 118.261 19.82Z"
        stroke="#784796" stroke-miterlimit="10" />
    <path
        d="M88.0906 167.95C88.0906 167.95 89.0906 143.74 113.741 138.58C138.391 133.42 134.401 119.06 134.401 119.06C134.401 119.06 139.241 148.42 118.401 155.06C97.5606 161.7 90.5106 161.65 88.0906 167.95Z"
        stroke="#784796" stroke-miterlimit="10" />
    <path
        d="M113.101 94.85C116.993 99.0858 119.952 104.092 121.787 109.544C123.621 114.996 124.29 120.773 123.751 126.5L105.681 134.89C108.173 128.961 110.063 122.797 111.321 116.49C112.739 109.368 113.336 102.108 113.101 94.85Z"
        stroke="#784796" stroke-miterlimit="10" />
    <path
        d="M39.2005 94.85C31.824 104.04 28.2457 115.705 29.2005 127.45L45.6605 133.25C40.7439 121.071 38.5427 107.967 39.2105 94.85H39.2005Z"
        stroke="#784796" stroke-miterlimit="10" />
    <path
        d="M29.1906 157.5L37.4205 173.31C37.5239 171.156 38.1519 169.06 39.2499 167.204C40.3478 165.348 41.8825 163.788 43.7206 162.66L29.1906 157.5Z"
        stroke="#784796" stroke-miterlimit="10" />
    <path
        d="M109.231 161.33L122.131 157.46L114.711 173.27C114.206 170.687 113.337 168.189 112.131 165.85C111.308 164.256 110.337 162.742 109.231 161.33Z"
        stroke="#784796" stroke-miterlimit="10" />
    <path
        d="M55.6405 69.01C61.7467 65.2328 68.7945 63.2545 75.9744 63.3023C83.1543 63.35 90.1751 65.4219 96.2305 69.28C99.1881 57.5428 102.783 45.9757 107.001 34.63C109.281 28.49 111.431 22.29 114.001 16.24C116.181 11.05 118.001 6.11 121.351 1.56C121.43 1.42149 121.536 1.30045 121.663 1.2042C121.79 1.10795 121.936 1.03848 122.091 1C122.253 1.01317 122.411 1.06212 122.553 1.14336C122.695 1.22461 122.817 1.33614 122.911 1.47C131.591 10.66 134.571 22.61 135.121 34.94C135.671 47.56 134.251 60.39 137.011 72.71C140.011 86.22 148.011 99.31 145.511 112.92C144.371 110.45 141.861 106.58 139.361 106.06C144.431 107.06 144.481 125.31 144.601 128.87C144.871 137.46 144.671 146.71 149.291 154.32L144.101 147.03C144.626 154.698 146.417 162.227 149.401 169.31L139.851 155.22L145.541 171.08L139.601 165.25C139.051 170.73 134.601 175.05 129.701 177.63C124.801 180.21 119.391 181.53 114.501 184.05C107.571 187.62 102.081 193.39 96.0805 198.37C90.0805 203.35 82.9405 207.75 75.1505 207.67C66.9805 207.59 59.7105 202.67 53.5905 197.22C47.4705 191.77 41.7905 185.64 34.3905 182.22C29.3905 179.91 23.9405 178.94 19.0705 176.46C14.2005 173.98 9.83052 169.26 10.1905 163.82L5.00052 170.61L10.0905 155.43L0.780518 168.19C4.07686 161.195 5.99513 153.631 6.43052 145.91L1.88052 152.85C5.88052 145.74 5.37052 137.12 5.38052 128.98C5.38052 121.41 6.38052 113.42 11.2905 107.12C8.89052 107.94 6.22052 109.98 3.88052 111.44C8.66052 108.44 9.94052 87.83 10.6805 82.55C12.1105 72.23 12.7805 61.82 13.6805 51.45C14.2405 44.52 16.1205 -4.55 29.9905 3.58C32.8305 5.26 34.3005 8.49 35.5705 11.58C43.3632 30.32 50.0644 49.4954 55.6405 69.01Z"
        stroke="#784796" stroke-miterlimit="10" />
    <path
        d="M61.0006 167.95C61.0006 167.95 60.0006 143.74 35.1206 138.58C10.2406 133.42 14.2906 119.06 14.2906 119.06C14.2906 119.06 9.40056 148.42 30.4006 155.06C51.4006 161.7 58.5106 161.65 61.0006 167.95Z"
        stroke="#784796" stroke-miterlimit="10" />
</svg>